<svg width="180" height="180" viewBox="0 0 180 180" fill="none" xmlns="http://www.w3.org/2000/svg">
<style>
path {
    color:black;
}
@media (prefers-color-scheme: dark){
    path {
        color:white;
    }
}
<path d="M95.915 92.5204L145.627 154.146V158.727H136.693L86.9805 93.6658L95.915 92.5204ZM47.577 29.9788L52.3879 26.5425V158.727H42.7661V21.2734H90.4168C102.177 21.2734 111.569 22.8007 118.595 25.8552C125.62 28.757 130.737 33.0334 133.944 38.6843C137.151 44.3351 138.755 51.2078 138.755 59.3024C138.755 67.3969 136.922 74.4986 133.257 80.6077C129.591 86.564 124.093 91.2222 116.762 94.5822C109.431 97.9422 100.344 99.6222 89.5004 99.6222H47.8061V90.9168H89.5004C101.719 90.9168 111.34 88.3204 118.366 83.1277C125.544 77.7823 129.133 69.7641 129.133 59.0733C129.133 52.3533 127.911 46.8551 125.468 42.5788C123.024 38.3024 118.9 35.1716 113.097 33.1861C107.446 31.0479 99.504 29.9788 89.2714 29.9788H47.577Z" fill="currentColor"/>
</svg>
